<svg width="360" height="24" viewBox="0 0 360 24" fill="none" xmlns="http://www.w3.org/2000/svg">
<path fill-rule="evenodd" clip-rule="evenodd" d="M6.52631 4.00037L17.9263 4.30037C18.2035 4.30766 18.4651 4.42968 18.6489 4.6373C18.8326 4.84492 18.9219 5.1195 18.8954 5.39547L17.4954 19.9955C17.457 20.3962 17.1821 20.7347 16.7979 20.8546C16.4136 20.9745 15.9949 20.8523 15.7355 20.5446L12.1233 16.2604L7.69277 20.5165C7.40372 20.7941 6.9768 20.8724 6.60806 20.7153C6.23932 20.5582 6 20.1961 6 19.7953V8.00002H8V17.448L11.5072 14.0789C11.7066 13.8873 11.9764 13.7869 12.2525 13.8014C12.5286 13.8159 12.7863 13.9441 12.9645 14.1554L15.7316 17.4373L16.8023 6.27148L6.47369 5.99967L6.52631 4.00037Z" fill="#5A5D7B"/>
<path fill-rule="evenodd" clip-rule="evenodd" d="M30.5263 4.00037L41.9263 4.30037C42.2039 4.30767 42.4659 4.43004 42.6496 4.63818C42.8334 4.84632 42.9224 5.12149 42.8952 5.39782L41.6472 18.0978C41.6099 18.4774 41.3599 18.8028 41.0027 18.9365C40.6455 19.0703 40.2433 18.9892 39.9658 18.7274L36.1336 15.1121L31.6093 18.5883C31.3072 18.8203 30.8996 18.8607 30.558 18.6923C30.2164 18.524 30 18.1762 30 17.7953V8.00002H32V15.7659L35.5907 13.007C35.9801 12.7079 36.5291 12.7357 36.8862 13.0726L39.8561 15.8744L40.7997 6.27141L30.4737 5.99967L30.5263 4.00037Z" fill="#5A5D7B"/>
<path fill-rule="evenodd" clip-rule="evenodd" d="M54.5262 4.00037L65.9261 4.30037C66.2021 4.30763 66.4628 4.42869 66.6464 4.63485C66.8301 4.84101 66.9203 5.11393 66.8958 5.38894L65.896 16.5889C65.8656 16.9286 65.6643 17.2294 65.3619 17.3869C65.0594 17.5445 64.6975 17.537 64.4018 17.3671L60.1755 14.9394L55.4606 17.3875C55.1506 17.5485 54.7791 17.536 54.4805 17.3547C54.182 17.1733 53.9998 16.8493 53.9998 16.5V8.00002H55.9998V14.854L59.7389 12.9125C60.0412 12.7556 60.4025 12.7633 60.6979 12.9329L64.0429 14.8544L64.809 6.27166L54.4736 5.99967L54.5262 4.00037Z" fill="#5A5D7B"/>
<path fill-rule="evenodd" clip-rule="evenodd" d="M78.5265 4.00037L89.9263 4.30037C90.1948 4.30743 90.4492 4.42224 90.6322 4.61892C90.8151 4.8156 90.9113 5.07762 90.8989 5.34595L90.4989 14.046C90.4839 14.3716 90.3112 14.6695 90.036 14.8442C89.7608 15.019 89.4177 15.0486 89.1166 14.9236L84.1854 12.8767L79.3582 14.7289C79.0508 14.8469 78.7049 14.8059 78.4335 14.6194C78.1621 14.4328 78 14.1246 78 13.7953V8.00002H80V12.3405L83.8418 10.8664C84.0811 10.7745 84.3466 10.7781 84.5834 10.8764L88.5665 12.5298L88.8542 6.27285L78.4739 5.99967L78.5265 4.00037Z" fill="#5A5D7B"/>
<path fill-rule="evenodd" clip-rule="evenodd" d="M102.526 4.00037L113.926 4.30037C114.197 4.3075 114.454 4.42427 114.637 4.62394C114.82 4.82362 114.914 5.08911 114.898 5.35962L114.498 12.0596C114.479 12.3826 114.305 12.6763 114.03 12.8479C113.756 13.0194 113.415 13.0477 113.117 12.9236L108.185 10.8767L103.358 12.7289C103.051 12.8469 102.705 12.8059 102.434 12.6194C102.162 12.4328 102 12.1246 102 11.7953V7.00002H104V10.3405L107.842 8.86639C108.081 8.77455 108.347 8.77814 108.583 8.87643L112.585 10.5377L112.84 6.27248L102.474 5.99967L102.526 4.00037Z" fill="#5A5D7B"/>
<path d="M132.2 8.8L127 9.79529L127 5L137.9 5.3L137.5 10L132.2 8.8Z" fill="#083CAE" stroke="#165DBB" stroke-width="2" stroke-linejoin="round"/>
<path d="M156.2 10.8L151 12.7953L151 5L161.9 5.3L161.5 13L156.2 10.8Z" fill="#083CAE" stroke="#165DBB" stroke-width="2" stroke-linejoin="round"/>
<path d="M180.2 12.8L174 14.7953L175 11V5L185.9 5.3L185.5 11L186 15L180.2 12.8Z" fill="#083CAE"/>
<path fill-rule="evenodd" clip-rule="evenodd" d="M174.303 4.28323C174.496 4.09497 174.758 3.99295 175.027 4.00038L185.928 4.30038C186.2 4.30788 186.458 4.4263 186.641 4.62822C186.824 4.83015 186.917 5.09808 186.898 5.37001L186.504 10.9727L186.992 14.876C187.036 15.224 186.894 15.5693 186.618 15.7861C186.342 16.0029 185.973 16.0594 185.645 15.935L180.173 13.8592L174.306 15.7472C173.959 15.8591 173.577 15.7725 173.312 15.5211C173.047 15.2698 172.94 14.8938 173.033 14.5405L174 10.8705V5C174 4.73001 174.109 4.4715 174.303 4.28323ZM176 6.0279V11C176 11.086 175.989 11.1716 175.967 11.2548L175.432 13.2838L179.894 11.8481C180.11 11.7786 180.343 11.7846 180.555 11.865L184.802 13.476L184.508 11.124C184.5 11.0597 184.498 10.9947 184.502 10.93L184.829 6.27091L176 6.0279Z" fill="#083CAE"/>
<path d="M204.2 14.8L198 16.7953L199 13V5L209.9 5.3L209.5 13L210 17L204.2 14.8Z" fill="#083CAE"/>
<path fill-rule="evenodd" clip-rule="evenodd" d="M198.303 4.28323C198.496 4.09497 198.758 3.99295 199.027 4.00038L209.928 4.30038C210.197 4.30779 210.452 4.42358 210.635 4.62152C210.817 4.81946 210.913 5.0828 210.899 5.35188L210.503 12.9636L210.992 16.876C211.036 17.224 210.894 17.5693 210.618 17.7861C210.342 18.0029 209.973 18.0594 209.645 17.935L204.173 15.8592L198.306 17.7472C197.959 17.8591 197.577 17.7725 197.312 17.5211C197.047 17.2698 196.94 16.8938 197.033 16.5405L198 12.8705V5C198 4.73001 198.109 4.4715 198.303 4.28323ZM200 6.0279V13C200 13.086 199.989 13.1716 199.967 13.2548L199.432 15.2838L203.894 13.8481C204.11 13.7786 204.343 13.7846 204.555 13.865L208.802 15.476L208.508 13.124C208.5 13.0657 208.498 13.0068 208.501 12.9481L208.848 6.27143L200 6.0279Z" fill="#083CAE"/>
<path d="M228.2 14.8L222 18.7953L223 15V5L233.9 5.3L233.5 15L234 19L228.2 14.8Z" fill="#083CAE"/>
<path fill-rule="evenodd" clip-rule="evenodd" d="M222.303 4.28323C222.496 4.09497 222.758 3.99295 223.028 4.00038L233.928 4.30038C234.195 4.30774 234.448 4.422 234.631 4.61761C234.814 4.81321 234.91 5.07384 234.899 5.34121L234.503 14.9583L234.992 18.876C235.042 19.2711 234.852 19.6579 234.509 19.8607C234.166 20.0634 233.736 20.0435 233.414 19.8099L228.167 16.0108L222.542 19.6359C222.195 19.8594 221.746 19.8469 221.413 19.6045C221.079 19.3621 220.928 18.9395 221.033 18.5405L222 14.8705V5C222 4.73001 222.109 4.4715 222.303 4.28323ZM224 6.0279V15C224 15.086 223.989 15.1716 223.967 15.2548L223.623 16.5597L227.658 13.9594C228.005 13.7362 228.453 13.7483 228.787 13.9901L232.722 16.84L232.508 15.124C232.501 15.0692 232.499 15.014 232.501 14.9588L232.859 6.27173L224 6.0279Z" fill="#083CAE"/>
<path d="M252.2 14.8L247 19.8L247 15V5L257.9 5.3L257 15L256.5 19.9L252.2 14.8Z" fill="#083CAE"/>
<path fill-rule="evenodd" clip-rule="evenodd" d="M246.303 4.28323C246.496 4.09497 246.758 3.99295 247.028 4.00038L257.928 4.30038C258.204 4.30799 258.465 4.42969 258.648 4.63658C258.832 4.84347 258.921 5.11708 258.896 5.39239L257.995 15.1015L257.495 20.0015C257.454 20.4008 257.179 20.7371 256.795 20.8555C256.411 20.9739 255.994 20.8515 255.736 20.5446L252.124 16.2607L247.693 20.5208C247.404 20.7987 246.977 20.8771 246.608 20.7201C246.239 20.563 246 20.2009 246 19.8L246 5C246 4.73001 246.109 4.4715 246.303 4.28323ZM248 6.0279L248 17.4512L251.507 14.0792C251.706 13.8875 251.976 13.7869 252.252 13.8014C252.528 13.8158 252.786 13.944 252.965 14.1554L255.745 17.4526L256.005 14.9031L256.806 6.27026L248 6.0279Z" fill="#083CAE"/>
<path d="M276.2 14.8L272 19.8L271 15V5L281.9 5.3L281 15L279.5 19.9L276.2 14.8Z" fill="#083CAE"/>
<path fill-rule="evenodd" clip-rule="evenodd" d="M270.303 4.28323C270.496 4.09497 270.758 3.99295 271.028 4.00038L281.928 4.30038C282.204 4.30799 282.465 4.42969 282.648 4.63658C282.832 4.84347 282.921 5.11708 282.896 5.39239L281.996 15.0924C281.989 15.1603 281.976 15.2275 281.956 15.2927L280.456 20.1927C280.342 20.5645 280.023 20.8367 279.638 20.8904C279.253 20.9441 278.872 20.7697 278.66 20.4433L276.095 16.4792L272.766 20.4432C272.519 20.7364 272.127 20.8632 271.756 20.7697C271.385 20.6762 271.099 20.3789 271.021 20.004L270.021 15.204C270.007 15.1369 270 15.0685 270 15V5C270 4.73001 270.109 4.4715 270.303 4.28323ZM272 6.0279V14.8969L272.559 17.5799L275.434 14.1568C275.638 13.9139 275.946 13.7822 276.262 13.8019C276.579 13.8216 276.867 13.9904 277.04 14.2567L279.173 17.5532L280.014 14.8054L280.806 6.27026L272 6.0279Z" fill="#083CAE"/>
<path d="M300.2 15.8L297 19.8L295 15V5L305.9 5.3L305 15L302.5 19.9L300.2 15.8Z" fill="#083CAE"/>
<path fill-rule="evenodd" clip-rule="evenodd" d="M294.303 4.28323C294.496 4.09497 294.758 3.99295 295.028 4.00038L305.928 4.30038C306.204 4.30799 306.465 4.42969 306.648 4.63658C306.832 4.84347 306.921 5.11708 306.896 5.39239L305.996 15.0924C305.984 15.2186 305.948 15.3415 305.891 15.4545L303.391 20.3545C303.223 20.6829 302.888 20.8925 302.52 20.8998C302.151 20.9071 301.808 20.7109 301.628 20.3893L300.054 17.5834L297.781 20.4247C297.56 20.7006 297.21 20.8395 296.861 20.7902C296.511 20.7409 296.213 20.5107 296.077 20.1846L294.077 15.3846C294.026 15.2627 294 15.132 294 15V5C294 4.73001 294.109 4.4715 294.303 4.28323ZM296 6.0279V14.8L297.274 17.857L299.419 15.1753C299.627 14.9156 299.95 14.7762 300.282 14.8033C300.613 14.8305 300.909 15.0207 301.072 15.3107L302.458 17.7815L304.022 14.7165L304.806 6.27026L296 6.0279Z" fill="#083CAE"/>
<path d="M324.2 14.8L320 19.8L319 15V5L329.9 5.3L329 15L327.5 19.9L324.2 14.8Z" fill="#083CAE"/>
<path fill-rule="evenodd" clip-rule="evenodd" d="M318.303 4.28323C318.496 4.09497 318.758 3.99295 319.028 4.00038L329.928 4.30038C330.204 4.30799 330.465 4.42969 330.648 4.63658C330.832 4.84347 330.921 5.11708 330.896 5.39239L329.996 15.0924C329.989 15.1603 329.976 15.2275 329.956 15.2927L328.456 20.1927C328.342 20.5645 328.023 20.8367 327.638 20.8904C327.253 20.9441 326.872 20.7697 326.66 20.4433L324.095 16.4792L320.766 20.4432C320.519 20.7364 320.127 20.8632 319.756 20.7697C319.385 20.6762 319.099 20.3789 319.021 20.004L318.021 15.204C318.007 15.1369 318 15.0685 318 15V5C318 4.73001 318.109 4.4715 318.303 4.28323ZM320 6.0279V14.8969L320.559 17.5799L323.434 14.1568C323.638 13.9139 323.946 13.7822 324.262 13.8019C324.579 13.8216 324.867 13.9904 325.04 14.2567L327.173 17.5532L328.014 14.8054L328.806 6.27026L320 6.0279Z" fill="#083CAE"/>
<path d="M348.2 14.8L343 19.7953L343 5L353.9 5.3L352.5 19.9L348.2 14.8Z" fill="#083CAE"/>
<path fill-rule="evenodd" clip-rule="evenodd" d="M342.303 4.28323C342.496 4.09497 342.758 3.99295 343.028 4.00038L353.928 4.30038C354.204 4.308 354.466 4.43016 354.649 4.63773C354.833 4.8453 354.922 5.11969 354.895 5.39545L353.495 19.9955C353.457 20.3961 353.182 20.7347 352.798 20.8546C352.414 20.9745 351.995 20.8523 351.736 20.5446L348.123 16.2604L343.693 20.5164C343.404 20.7941 342.977 20.8724 342.608 20.7153C342.239 20.5582 342 20.1961 342 19.7953L342 5C342 4.73002 342.109 4.4715 342.303 4.28323ZM344 6.0279L344 17.448L347.507 14.0788C347.707 13.8873 347.976 13.7869 348.253 13.8014C348.529 13.8159 348.786 13.944 348.965 14.1554L351.732 17.4372L352.802 6.27017L344 6.0279Z" fill="#083CAE"/>
</svg>
